<svg width="512" height="512" viewBox="0 0 512 512" fill="none" xmlns="http://www.w3.org/2000/svg">
<path fill-rule="evenodd" clip-rule="evenodd" d="M253.011 87.5254C252.724 87.8134 250.477 88.3043 248.018 88.615C230.857 90.7856 211.702 105.013 203.634 121.582C199.619 129.827 196.364 142.843 196.364 150.651C196.364 158.521 199.57 171.504 203.559 179.779C206.527 185.939 209.494 189.878 215.99 196.282C221.097 201.316 225.218 204.54 226.254 204.309C227.206 204.097 229.914 205.2 232.273 206.761C234.631 208.321 238.249 210.283 240.312 211.121C244.365 212.768 257.234 213.2 262.026 211.852C263.651 211.394 264.92 211.394 264.847 211.852C264.519 213.882 265.391 213.97 272.452 212.616C301.341 207.076 322.739 180.641 322.83 150.381L322.849 144.178H311.594C305.403 144.178 300.339 143.729 300.339 143.18C300.339 142.632 302.509 135.903 305.162 128.227C307.815 120.553 309.986 113.72 309.986 113.046C309.986 110.992 302.255 103.067 300.582 103.406C299.564 103.611 293.844 118.598 284.257 146.182C276.14 169.536 268.57 189.896 267.434 191.426C263.522 196.7 259.968 198.536 252.895 198.937C245.166 199.374 241.395 197.581 236.523 191.153C230.5 183.206 230.75 181.976 248.233 133.569C256.846 109.721 263.894 89.4867 263.894 88.6042C263.894 87.4056 262.584 87 258.713 87C255.863 87 253.297 87.2363 253.011 87.5254ZM243.057 107.228C242.261 109.454 236.793 124.624 230.906 140.941C225.019 157.259 219.853 172.243 219.426 174.24L218.65 177.87L216.603 174.779C211.268 166.722 208.924 150.944 211.436 139.983C214.457 126.796 225.613 112.364 237.351 106.461C240.937 104.658 244.013 103.182 244.187 103.182C244.362 103.182 243.854 105.004 243.057 107.228ZM308.914 157.642C308.914 157.825 307.945 161.134 306.76 164.994C303.769 174.74 297.038 184.446 289.289 190.188C285.765 192.799 282.729 194.78 282.542 194.592C282.354 194.403 285.155 185.774 288.765 175.417L295.33 156.584L302.122 156.946C305.858 157.145 308.914 157.458 308.914 157.642ZM93.7612 252.99C70.5544 258.925 53.8842 275.017 47.7807 297.372C45.1674 306.945 45.1835 328.592 47.8108 338.367C53.3236 358.877 69.0752 375.346 89.1734 381.614C103.079 385.951 125.043 386.124 140.776 382.02C150.799 379.406 164.16 372.615 170.417 366.951L175.998 361.902V344.907C175.998 329.814 176.217 327.714 177.958 326.128C182.215 322.251 182.429 323.306 182.429 348.16V371.977L179.296 375.131C177.191 377.249 175.08 378.284 172.865 378.284C170.281 378.284 169.566 378.751 169.566 380.442C169.566 382.545 170.281 382.599 197.972 382.599C225.662 382.599 226.377 382.545 226.377 380.442C226.377 378.748 225.662 378.284 223.054 378.284C220.705 378.284 218.664 377.209 216.087 374.616L212.442 370.948L212.539 347.915L212.634 324.882L214.147 333.513C219.138 362.001 241.704 381.788 272.462 384.644C283.389 385.659 298.108 384.581 308.076 382.036C317.59 379.605 331.601 372.412 337.877 366.732L343.215 361.902V344.907C343.215 329.814 343.435 327.714 345.175 326.128C346.254 325.146 347.46 324.342 347.855 324.342C348.251 324.342 348.58 329.075 348.587 334.861C348.608 351.762 352.263 361.608 361.801 370.457C372.284 380.183 386.94 384.865 406.993 384.894C420.886 384.913 428.565 383.406 437.293 378.944C448.785 373.07 457.33 361.911 459.936 349.372C460.681 345.791 461.124 328.946 461.124 304.277C461.124 271.827 461.4 264.363 462.693 261.848C464.324 258.673 466.291 257.455 469.788 257.455C471.128 257.455 471.843 256.705 471.843 255.297C471.843 253.22 471.128 253.14 452.549 253.14C433.97 253.14 433.255 253.22 433.255 255.297C433.255 257.049 433.97 257.455 437.058 257.455C439.817 257.455 441.601 258.259 443.556 260.382L446.251 263.309L445.916 305.423L445.582 347.537L442.235 354.646C436.621 366.572 429.585 372.041 417.292 374.033C397.718 377.206 382.076 364.937 378.657 343.727C378.035 339.866 377.529 320.706 377.524 300.824C377.515 258.306 377.706 257.455 387.251 257.455C389.664 257.455 390.379 256.962 390.379 255.297C390.379 253.196 389.664 253.14 363.045 253.14C336.426 253.14 335.712 253.196 335.712 255.297C335.712 256.966 336.426 257.455 338.867 257.455C340.657 257.455 343.325 258.581 345.031 260.057L348.038 262.659L348.357 290.804L348.676 318.948H325.043C302.201 318.948 301.411 319.02 301.411 321.085C301.411 323.195 302.921 323.9 308.887 324.58C313.178 325.069 314.24 328.844 314.257 343.666C314.272 355.934 314.054 357.434 311.656 361.552C306.704 370.058 297.258 374.518 284.26 374.486C277.022 374.469 273.986 373.941 269.49 371.912C259.381 367.353 251.122 355.782 247.089 340.525C244.487 330.688 244.531 306.012 247.166 296.293C251.445 280.514 260.849 268.302 272.188 263.796C281.021 260.288 297.075 260.348 306.227 263.926C315.43 267.524 323.631 276.048 327.75 286.301C329.959 291.795 331.443 294.113 332.764 294.122C334.47 294.134 334.64 292.626 334.64 277.427V260.721L330.62 258.992C319.497 254.209 306.49 251.822 288.497 251.266C272.827 250.781 269.706 250.984 261.7 253.009C234.373 259.92 217.592 278.188 213.517 305.463C212.997 308.941 212.662 302.675 212.576 287.824L212.442 264.791L216.087 261.123C218.664 258.53 220.705 257.455 223.054 257.455C225.662 257.455 226.377 256.991 226.377 255.297C226.377 253.194 225.662 253.14 197.972 253.14C170.281 253.14 169.566 253.194 169.566 255.297C169.566 256.988 170.281 257.455 172.865 257.455C175.08 257.455 177.191 258.49 179.296 260.608L182.429 263.762V291.355V318.948H158.236H134.044L134.386 321.376C134.67 323.384 135.5 323.859 139.201 324.131C145.923 324.623 146.469 325.912 146.893 342.302C147.251 356.108 147.155 356.888 144.544 361.371C139.485 370.06 130.138 374.518 117.043 374.486C109.834 374.469 106.764 373.938 102.343 371.943C90.7137 366.696 82.0603 353.214 79.0064 335.587C73.2428 302.326 84.1933 272.052 104.971 263.796C113.629 260.357 129.873 260.353 138.639 263.787C149.289 267.959 157.559 277.069 161.642 289.129C162.863 292.737 163.907 294.135 165.379 294.135C167.301 294.135 167.422 293.142 167.422 277.427V260.721L163.403 258.992C161.193 258.041 154.801 256.034 149.2 254.531C135.166 250.767 105.658 249.946 93.7612 252.99ZM57.0163 413.885V426.831H60.7036C64.1862 426.831 64.4092 426.608 64.7426 422.786L65.0952 418.74L67.1501 422.786C68.8597 426.154 69.7644 426.831 72.5471 426.831C75.2805 426.831 76.3138 426.094 78.2185 422.786L80.5489 418.74L80.5735 422.786C80.5971 426.686 80.7332 426.831 84.3498 426.831H88.1015V413.885V400.939H84.9383C82.1599 400.939 81.3013 401.791 77.8841 407.942C75.7435 411.793 73.5868 415.197 73.0906 415.507C72.5932 415.815 70.3604 412.664 68.1276 408.504C64.3685 401.498 63.8079 400.939 60.5428 400.939H57.0163V413.885ZM99.3565 402.198C92.4845 406.024 90.0631 411.892 92.2819 419.344C94.0742 425.364 96.7807 426.831 106.097 426.831C115.071 426.831 117.43 425.9 119.712 421.459C124.723 411.704 117.719 400.897 106.433 400.972C103.72 400.99 100.536 401.542 99.3565 402.198ZM124.546 413.885V426.831H134.048C142.81 426.831 143.761 426.617 146.291 424.072C149.882 420.456 150.911 414.275 148.776 409.133C146.596 403.883 140.401 400.995 131.246 400.963L124.546 400.939V413.885ZM156.204 412.537C153.402 418.916 150.869 424.742 150.575 425.483C150.201 426.431 151.36 426.831 154.478 426.831C157.432 426.831 159.121 426.291 159.531 425.213C159.947 424.123 161.648 423.595 164.743 423.595C167.837 423.595 169.538 424.123 169.954 425.213C170.365 426.291 172.053 426.831 175.007 426.831C178.125 426.831 179.284 426.431 178.91 425.483C178.616 424.742 176.083 418.916 173.281 412.537C168.328 401.264 168.09 400.939 164.743 400.939C161.395 400.939 161.157 401.264 156.204 412.537ZM198.307 406.064C197.084 408.883 194.7 414.29 193.008 418.08C191.316 421.871 189.932 425.39 189.932 425.901C189.932 427.591 198.232 426.953 198.896 425.213C199.318 424.104 201.041 423.595 204.37 423.595C207.973 423.595 209.227 424.012 209.227 425.213C209.227 426.381 210.418 426.831 213.514 426.831C215.873 426.831 217.815 426.468 217.831 426.022C217.847 425.577 215.555 419.755 212.739 413.085C207.69 401.123 207.571 400.956 204.075 400.948C200.871 400.94 200.318 401.431 198.307 406.064ZM219.946 413.821V426.831H224.233C228.307 426.831 228.521 426.665 228.521 423.512V420.193L231.296 423.512C233.99 426.734 234.335 426.831 243.087 426.831C250.387 426.831 252.103 426.523 252.103 425.213C252.103 423.991 253.413 423.595 257.462 423.595C261.512 423.595 262.822 423.991 262.822 425.213C262.822 426.381 264.013 426.831 267.11 426.831C269.468 426.831 271.397 426.336 271.397 425.73C271.397 425.125 269.107 419.277 266.306 412.736L261.214 400.842L257.583 401.16C254.065 401.469 253.797 401.836 249.073 412.806C246.389 419.037 244.06 424.321 243.896 424.547C243.732 424.775 241.473 422.598 238.873 419.708L234.147 414.455L238.837 408.929C241.417 405.89 243.528 402.849 243.528 402.171C243.528 401.458 241.768 400.939 239.352 400.939C235.928 400.939 234.586 401.614 231.913 404.679L228.652 408.417L228.318 404.948C228.015 401.789 227.625 401.449 223.965 401.144L219.946 400.809V413.821ZM273.541 413.885V426.831H282.69C293.083 426.831 296.273 425.445 298.114 420.126C299.879 415.032 299.504 411.323 296.817 407.302C293.843 402.849 289.194 401.082 280.24 401L273.541 400.939V413.885ZM302.482 413.885V426.831H313.808H325.135L324.795 423.864C324.467 420.992 324.227 420.888 317.221 420.578C308.265 420.184 307.594 418.201 316.417 418.201H322.849V414.425V410.649H316.417C312.845 410.649 309.986 410.17 309.986 409.57C309.986 408.962 313.022 408.491 316.953 408.491H323.921V404.715V400.939H313.201H302.482V413.885ZM328.208 413.817V426.831H331.96C335.576 426.831 335.713 426.686 335.736 422.786L335.761 418.74L338.091 422.786C339.996 426.094 341.029 426.831 343.763 426.831C346.545 426.831 347.45 426.154 349.16 422.786L351.214 418.74L351.567 422.786C351.901 426.608 352.123 426.831 355.606 426.831H359.293V413.817V400.802L355.829 401.141C352.756 401.441 351.883 402.353 348.106 409.224L343.846 416.969L339.486 409.224C335.635 402.386 334.72 401.439 331.666 401.141L328.208 400.802V413.817ZM363.581 413.885V426.831H367.869H372.156V415.592C372.156 409.41 371.864 403.585 371.506 402.646C371.09 401.553 369.546 400.939 367.218 400.939H363.581V413.885ZM373.228 402.337C373.228 403.107 375.438 407.344 378.141 411.755C381.952 417.977 382.961 420.563 382.643 423.302C382.244 426.742 382.337 426.831 386.306 426.831C390.294 426.831 390.379 426.747 390.397 422.786C390.409 419.934 391.823 416.384 395.185 410.758C397.808 406.367 399.701 402.362 399.391 401.857C399.081 401.353 397.216 400.939 395.248 400.939C392.186 400.939 391.288 401.588 389.04 405.419L386.412 409.898L383.91 405.419C381.659 401.388 380.999 400.939 377.319 400.939C374.684 400.939 373.228 401.437 373.228 402.337ZM404.016 413.042C401.201 419.736 398.909 425.577 398.925 426.022C398.941 426.468 400.883 426.831 403.242 426.831C406.338 426.831 407.529 426.381 407.529 425.213C407.529 424.012 408.783 423.595 412.386 423.595C415.715 423.595 417.438 424.104 417.86 425.213C418.505 426.904 426.823 427.616 426.823 425.981C426.823 425.513 424.493 419.809 421.646 413.305C416.605 401.791 416.371 401.471 412.803 401.175L409.137 400.871L404.016 413.042ZM430.527 403.588C424.919 409.231 428.079 415.383 438.028 418.187C440.709 418.942 442.902 419.982 442.902 420.499C442.902 422.149 436.439 421.532 435.787 419.819C435.18 418.229 428.957 417.493 427.607 418.851C426.741 419.722 428.774 424.959 430.375 425.983C431.075 426.432 435.326 426.805 439.823 426.815C449 426.833 450.762 425.757 450.762 420.13C450.762 417.822 449.855 415.994 447.845 414.254L444.926 411.728H447.666C452.322 411.728 451.167 405.186 446.041 402.518C441.102 399.947 433.631 400.462 430.527 403.588ZM454.655 401.748C454.635 402.194 454.514 408.02 454.387 414.694L454.157 426.831H458.177H462.196V413.885V400.939H458.445C456.381 400.939 454.676 401.303 454.655 401.748ZM112.009 411.936C114.02 414.659 114.045 415.008 112.411 417.518C110.135 421.015 107.065 421.911 103.393 420.148C101.374 419.178 100.317 417.75 100.08 415.67C99.2836 408.687 107.671 406.062 112.009 411.936ZM140.255 410.787C142.205 412.416 142.076 416.586 140.013 418.663C139.086 419.596 136.915 420.358 135.189 420.358C132.09 420.358 132.05 420.281 132.05 414.29V408.221L135.431 408.902C137.291 409.277 139.462 410.125 140.255 410.787ZM288.309 410.171C293.199 413.618 290.567 420.358 284.331 420.358C282.361 420.358 282.116 419.702 282.116 414.425C282.116 407.872 283.602 406.851 288.309 410.171ZM442.678 410.492C443.033 411.578 442.502 411.755 440.617 411.181C436.521 409.931 435.496 408.275 439.068 408.678C440.79 408.872 442.415 409.689 442.678 410.492ZM165.279 414.425C165.279 415.315 164.811 416.043 164.24 416.043C163.67 416.043 163.48 415.315 163.819 414.425C164.159 413.535 164.626 412.806 164.857 412.806C165.089 412.806 165.279 413.535 165.279 414.425ZM204.939 414.964C204.939 415.558 204.457 416.043 203.867 416.043C203.278 416.043 202.795 415.558 202.795 414.964C202.795 414.371 203.278 413.885 203.867 413.885C204.457 413.885 204.939 414.371 204.939 414.964ZM258.534 414.964C258.534 415.558 258.023 416.043 257.399 416.043C256.775 416.043 256.562 415.558 256.927 414.964C257.291 414.371 257.801 413.885 258.062 413.885C258.322 413.885 258.534 414.371 258.534 414.964ZM413.425 414.964C413.789 415.558 413.576 416.043 412.952 416.043C412.328 416.043 411.817 415.558 411.817 414.964C411.817 414.371 412.029 413.885 412.289 413.885C412.55 413.885 413.06 414.371 413.425 414.964Z" fill="url(#paint0_linear_61_14)"/>
<defs>
<linearGradient id="paint0_linear_61_14" x1="1.51207" y1="2.02402" x2="596.344" y2="489.002" gradientUnits="userSpaceOnUse">
<stop stop-color="#FF0D4F"/>
<stop offset="1" stop-color="#FF8DAC"/>
</linearGradient>
</defs>
</svg>
