<svg width="66" height="52" viewBox="0 0 66 52" fill="none" xmlns="http://www.w3.org/2000/svg">
<path fill-rule="evenodd" clip-rule="evenodd" d="M31.9754 0.0803765C31.9314 0.124443 31.5877 0.199538 31.2115 0.247071C28.5861 0.57914 25.6557 2.75574 24.4214 5.29049C23.8073 6.55192 23.3093 8.54318 23.3093 9.7376C23.3093 10.9416 23.7997 12.9277 24.4099 14.1938C24.864 15.1362 25.3179 15.7388 26.3118 16.7185C27.093 17.4886 27.7236 17.9817 27.882 17.9464C28.0276 17.914 28.442 18.0827 28.8027 18.3215C29.1635 18.5602 29.717 18.8604 30.0326 18.9886C30.6527 19.2405 32.6215 19.3067 33.3545 19.1004C33.6031 19.0304 33.7972 19.0304 33.7861 19.1004C33.7359 19.411 33.8694 19.4244 34.9496 19.2172C39.3691 18.3697 42.6427 14.3257 42.6567 9.69634L42.6595 8.74734H40.9376C39.9906 8.74734 39.2158 8.67868 39.2158 8.59467C39.2158 8.51083 39.5478 7.48145 39.9537 6.30716C40.3596 5.13304 40.6916 4.08781 40.6916 3.98466C40.6916 3.67041 39.509 2.458 39.253 2.50982C39.0972 2.54118 38.2222 4.83397 36.7555 9.05399C35.5138 12.6267 34.3556 15.7414 34.1819 15.9756C33.5834 16.7823 33.0396 17.0632 31.9577 17.1246C30.7752 17.1915 30.1983 16.9172 29.4529 15.9338C28.5315 14.718 28.5697 14.5298 31.2445 7.12429C32.5621 3.47599 33.6403 0.380427 33.6403 0.245421C33.6403 0.0620566 33.4399 0 32.8478 0C32.4117 0 32.0191 0.0361447 31.9754 0.0803765ZM30.4526 3.09458C30.3308 3.43506 29.4943 5.75591 28.5937 8.2522C27.6931 10.7485 26.9027 13.0408 26.8374 13.3463L26.7187 13.9017L26.4055 13.4288C25.5893 12.1963 25.2308 9.78249 25.615 8.10564C26.0772 6.08814 27.7839 3.88035 29.5797 2.97723C30.1282 2.70144 30.5989 2.47566 30.6254 2.47566C30.6522 2.47566 30.5744 2.75426 30.4526 3.09458ZM40.5277 10.8071C40.5277 10.8351 40.3794 11.3413 40.1982 11.9319C39.7405 13.4229 38.7109 14.9078 37.5254 15.7861C36.9862 16.1855 36.5218 16.4887 36.4931 16.4598C36.4644 16.431 36.8929 15.1109 37.4452 13.5264L38.4495 10.6453L39.4886 10.7006C40.0601 10.7312 40.5277 10.779 40.5277 10.8071ZM7.61264 25.3938C4.06237 26.3019 1.51208 28.7637 0.578354 32.1836C0.17856 33.6482 0.181019 36.9598 0.582946 38.4553C1.42632 41.5929 3.83607 44.1125 6.91079 45.0714C9.03816 45.7349 12.3982 45.7613 14.8052 45.1334C16.3386 44.7335 18.3825 43.6946 19.3398 42.8281L20.1936 42.0557V39.4558C20.1936 37.1468 20.2272 36.8255 20.4935 36.5828C21.1447 35.9897 21.1775 36.1511 21.1775 39.9534V43.597L20.6981 44.0795C20.3761 44.4036 20.0532 44.5619 19.7142 44.5619C19.319 44.5619 19.2096 44.6334 19.2096 44.892C19.2096 45.2138 19.319 45.2221 23.5552 45.2221C27.7915 45.2221 27.9008 45.2138 27.9008 44.892C27.9008 44.6329 27.7915 44.5619 27.3925 44.5619C27.033 44.5619 26.7208 44.3975 26.3266 44.0007L25.769 43.4396L25.7838 39.9159L25.7984 36.3922L26.0298 37.7126C26.7933 42.0709 30.2456 45.098 34.951 45.5348C36.6227 45.6901 38.8745 45.5253 40.3994 45.1359C41.8549 44.7641 43.9984 43.6636 44.9585 42.7946L45.7752 42.0557V39.4558C45.7752 37.1468 45.8088 36.8255 46.0751 36.5828C46.2401 36.4327 46.4245 36.3097 46.4851 36.3097C46.5456 36.3097 46.5959 37.0337 46.5971 37.9189C46.6002 40.5045 47.1594 42.0108 48.6185 43.3645C50.2223 44.8524 52.4644 45.5687 55.5323 45.5731C57.6577 45.5761 58.8325 45.3455 60.1676 44.6629C61.9257 43.7642 63.233 42.057 63.6316 40.1389C63.7456 39.5909 63.8135 37.0139 63.8135 33.24C63.8135 28.2757 63.8556 27.1337 64.0534 26.749C64.303 26.2633 64.6039 26.077 65.1388 26.077C65.344 26.077 65.4533 25.9623 65.4533 25.7469C65.4533 25.429 65.344 25.4168 62.5016 25.4168C59.6593 25.4168 59.5499 25.429 59.5499 25.7469C59.5499 26.0149 59.6593 26.077 60.1317 26.077C60.5538 26.077 60.8267 26.1999 61.1258 26.5247L61.538 26.9725L61.4869 33.4153L61.4357 39.8581L60.9237 40.9456C60.0648 42.7702 58.9884 43.6068 57.1078 43.9116C54.1133 44.397 51.7203 42.52 51.1973 39.2752C51.1021 38.6845 51.0246 35.7533 51.024 32.7117C51.0225 26.2072 51.0517 26.077 52.512 26.077C52.8811 26.077 52.9905 26.0015 52.9905 25.7469C52.9905 25.4254 52.8811 25.4168 48.8089 25.4168C44.7367 25.4168 44.6273 25.4254 44.6273 25.7469C44.6273 26.0022 44.7366 26.077 45.11 26.077C45.3839 26.077 45.7921 26.2493 46.053 26.475L46.5131 26.8731L46.5618 31.1788L46.6107 35.4845H42.9951C39.5006 35.4845 39.3798 35.4954 39.3798 35.8114C39.3798 36.1341 39.6108 36.242 40.5236 36.346C41.18 36.4208 41.3425 36.9984 41.3451 39.266C41.3474 41.1427 41.314 41.3723 40.9471 42.0022C40.1895 43.3034 38.7445 43.9857 36.756 43.9809C35.6486 43.9783 35.1842 43.8974 34.4965 43.5871C32.9499 42.8897 31.6864 41.1194 31.0693 38.7854C30.6714 37.2805 30.6781 33.5054 31.0812 32.0185C31.7358 29.6046 33.1744 27.7363 34.9092 27.0471C36.2604 26.5104 38.7164 26.5196 40.1165 27.0669C41.5245 27.6173 42.7792 28.9213 43.4094 30.4899C43.7472 31.3305 43.9743 31.685 44.1763 31.6865C44.4374 31.6883 44.4633 31.4576 44.4633 29.1324V26.5765L43.8484 26.3121C42.1467 25.5803 40.1569 25.2153 37.4042 25.1301C35.0069 25.056 34.5294 25.087 33.3046 25.3968C29.124 26.4541 26.5568 29.2488 25.9333 33.4214C25.8538 33.9535 25.8026 32.9949 25.7895 30.7229L25.769 27.1993L26.3266 26.6381C26.7208 26.2413 27.033 26.077 27.3925 26.077C27.7915 26.077 27.9008 26.006 27.9008 25.7469C27.9008 25.425 27.7915 25.4168 23.5552 25.4168C19.319 25.4168 19.2096 25.425 19.2096 25.7469C19.2096 26.0055 19.319 26.077 19.7142 26.077C20.0532 26.077 20.3761 26.2352 20.6981 26.5594L21.1775 27.0418V31.2631V35.4845H17.4763H13.7754L13.8277 35.8558C13.8711 36.1631 13.998 36.2358 14.5643 36.2773C15.5926 36.3526 15.6761 36.5498 15.741 39.0572C15.7958 41.1693 15.781 41.2886 15.3816 41.9745C14.6077 43.3038 13.1778 43.9857 11.1744 43.9809C10.0716 43.9783 9.60194 43.8971 8.9255 43.5918C7.14643 42.7892 5.82259 40.7266 5.35539 38.0299C4.47365 32.9415 6.14892 28.31 9.32759 27.0471C10.6521 26.5209 13.1371 26.5203 14.4782 27.0456C16.1075 27.6838 17.3727 29.0776 17.9973 30.9227C18.1841 31.4746 18.3438 31.6885 18.5691 31.6885C18.8631 31.6885 18.8817 31.5365 18.8817 29.1324V26.5765L18.2667 26.3121C17.9286 26.1666 16.9508 25.8596 16.0939 25.6297C13.9469 25.0539 9.43271 24.9283 7.61264 25.3938ZM1.99125 50.0084V51.9889H2.55535C3.08814 51.9889 3.12225 51.9547 3.17325 51.37L3.2272 50.751L3.54156 51.37C3.80311 51.8852 3.94152 51.9889 4.36722 51.9889C4.78538 51.9889 4.94346 51.8762 5.23486 51.37L5.59137 50.751L5.59514 51.37C5.59875 51.9666 5.61957 51.9889 6.17286 51.9889H6.7468V50.0084V48.0278H6.26288C5.83784 48.0278 5.70648 48.158 5.1837 49.0991C4.85622 49.6883 4.52629 50.209 4.45036 50.2564C4.37427 50.3036 4.03269 49.8215 3.69111 49.1851C3.11602 48.1133 3.03025 48.0278 2.53076 48.0278H1.99125V50.0084ZM8.46864 48.2204C7.41734 48.8057 7.0469 49.7033 7.38634 50.8435C7.66053 51.7644 8.07459 51.9889 9.49978 51.9889C10.8727 51.9889 11.2336 51.8464 11.5827 51.167C12.3493 49.6746 11.2779 48.0214 9.55127 48.0328C9.13623 48.0356 8.64903 48.1201 8.46864 48.2204ZM12.3223 50.0084V51.9889H13.7758C15.1164 51.9889 15.2619 51.956 15.6489 51.5667C16.1982 51.0136 16.3557 50.0679 16.029 49.2813C15.6956 48.4782 14.7478 48.0364 13.3472 48.0315L12.3223 48.0278V50.0084ZM17.1654 49.802C16.7368 50.778 16.3493 51.6692 16.3043 51.7826C16.2471 51.9277 16.4244 51.9889 16.9014 51.9889C17.3533 51.9889 17.6116 51.9062 17.6744 51.7413C17.738 51.5746 17.9983 51.4937 18.4717 51.4937C18.9451 51.4937 19.2054 51.5746 19.269 51.7413C19.3318 51.9062 19.5901 51.9889 20.042 51.9889C20.5191 51.9889 20.6963 51.9277 20.6391 51.7826C20.5942 51.6692 20.2067 50.778 19.778 49.802C19.0202 48.0775 18.9838 48.0278 18.4717 48.0278C17.9596 48.0278 17.9232 48.0775 17.1654 49.802ZM23.6066 48.8118C23.4195 49.243 23.0548 50.0702 22.7958 50.65C22.5371 51.23 22.3254 51.7684 22.3254 51.8466C22.3254 52.1051 23.5951 52.0075 23.6966 51.7413C23.7612 51.5717 24.0247 51.4937 24.5341 51.4937C25.0852 51.4937 25.2771 51.5576 25.2771 51.7413C25.2771 51.9201 25.4593 51.9889 25.933 51.9889C26.2938 51.9889 26.5909 51.9333 26.5934 51.8651C26.5958 51.7969 26.2452 50.9064 25.8145 49.8859C25.0419 48.0559 25.0237 48.0303 24.489 48.0291C23.9988 48.028 23.9142 48.1031 23.6066 48.8118ZM26.9169 49.9984V51.9889H27.5729C28.196 51.9889 28.2288 51.9635 28.2288 51.481V50.9734L28.6534 51.481C29.0655 51.974 29.1183 51.9889 30.4572 51.9889C31.5739 51.9889 31.8365 51.9417 31.8365 51.7413C31.8365 51.5543 32.0369 51.4937 32.6564 51.4937C33.2759 51.4937 33.4763 51.5543 33.4763 51.7413C33.4763 51.9201 33.6585 51.9889 34.1323 51.9889C34.493 51.9889 34.7882 51.9131 34.7882 51.8204C34.7882 51.7278 34.4378 50.8332 34.0093 49.8326L33.2303 48.013L32.6748 48.0617C32.1366 48.1089 32.0956 48.165 31.3729 49.8433C30.9623 50.7964 30.6061 51.6048 30.581 51.6395C30.5559 51.6743 30.2102 51.3412 29.8126 50.8991L29.0896 50.0955L29.807 49.2501C30.2017 48.7852 30.5246 48.32 30.5246 48.2163C30.5246 48.1072 30.2553 48.0278 29.8857 48.0278C29.3619 48.0278 29.1566 48.131 28.7477 48.5999L28.2488 49.1717L28.1978 48.6411C28.1514 48.1579 28.0917 48.1057 27.5319 48.0592L26.9169 48.0078V49.9984ZM35.1162 50.0084V51.9889H36.5158C38.1058 51.9889 38.5938 51.7768 38.8755 50.9631C39.1454 50.1838 39.088 49.6164 38.6771 49.0013C38.222 48.32 37.5108 48.0496 36.1411 48.0371L35.1162 48.0278V50.0084ZM39.5437 50.0084V51.9889H41.2764H43.0092L42.9573 51.535C42.9071 51.0955 42.8703 51.0797 41.7985 51.0323C40.4284 50.9719 40.3258 50.6685 41.6755 50.6685H42.6595V50.0909V49.5132H41.6755C41.129 49.5132 40.6916 49.4399 40.6916 49.3482C40.6916 49.2551 41.1562 49.1831 41.7575 49.1831H42.8234V48.6055V48.0278H41.1836H39.5437V50.0084ZM43.4794 49.998V51.9889H44.0533C44.6066 51.9889 44.6274 51.9666 44.6311 51.37L44.6348 50.751L44.9913 51.37C45.2827 51.8762 45.4408 51.9889 45.859 51.9889C46.2847 51.9889 46.4231 51.8852 46.6846 51.37L46.999 50.751L47.0529 51.37C47.1039 51.9547 47.138 51.9889 47.6708 51.9889H48.2349V49.998V48.0069L47.7049 48.0587C47.2348 48.1046 47.1013 48.244 46.5234 49.2952L45.8718 50.48L45.2047 49.2952C44.6156 48.2491 44.4756 48.1042 44.0084 48.0587L43.4794 48.0069V49.998ZM48.8909 50.0084V51.9889H49.5468H50.2028V50.2695C50.2028 49.3238 50.158 48.4325 50.1032 48.2889C50.0396 48.1217 49.8035 48.0278 49.4473 48.0278H48.8909V50.0084ZM50.3667 48.2417C50.3667 48.3594 50.7049 49.0077 51.1183 49.6824C51.7014 50.6344 51.8557 51.03 51.807 51.449C51.746 51.9752 51.7603 51.9889 52.3675 51.9889C52.9775 51.9889 52.9905 51.976 52.9933 51.37C52.9951 50.9338 53.2114 50.3906 53.7258 49.5299C54.1271 48.8582 54.4167 48.2455 54.3693 48.1683C54.3219 48.091 54.0366 48.0278 53.7355 48.0278C53.267 48.0278 53.1296 48.127 52.7857 48.7131L52.3836 49.3983L52.0008 48.7131C51.6565 48.0965 51.5556 48.0278 50.9925 48.0278C50.5894 48.0278 50.3667 48.1039 50.3667 48.2417ZM55.0769 49.8793C54.6461 50.9034 54.2955 51.7969 54.2979 51.8651C54.3004 51.9333 54.5975 51.9889 54.9583 51.9889C55.4321 51.9889 55.6143 51.9201 55.6143 51.7413C55.6143 51.5576 55.8061 51.4937 56.3573 51.4937C56.8666 51.4937 57.1301 51.5717 57.1947 51.7413C57.2935 51.9999 58.566 52.1089 58.566 51.8588C58.566 51.7872 58.2095 50.9146 57.7739 49.9196C57.0027 48.158 56.967 48.1092 56.4211 48.0638L55.8602 48.0174L55.0769 49.8793ZM59.1325 48.433C58.2746 49.2963 58.758 50.2374 60.2801 50.6664C60.6902 50.7819 61.0257 50.941 61.0257 51.0201C61.0257 51.2726 60.0371 51.1782 59.9372 50.9161C59.8444 50.6728 58.8923 50.5603 58.6859 50.768C58.5534 50.9012 58.8644 51.7025 59.1093 51.8591C59.2163 51.9278 59.8667 51.9849 60.5548 51.9864C61.9587 51.9892 62.2283 51.8245 62.2283 50.9636C62.2283 50.6106 62.0895 50.331 61.7819 50.0648L61.3353 49.6783H61.7545C62.4668 49.6783 62.2902 48.6774 61.5059 48.2693C60.7504 47.876 59.6074 47.9549 59.1325 48.433ZM62.8238 48.1516C62.8207 48.2198 62.8022 49.111 62.7828 50.1321L62.7476 51.9889H63.3625H63.9775V50.0084V48.0278H63.4035C63.0879 48.0278 62.827 48.0834 62.8238 48.1516ZM10.4043 49.7101C10.712 50.1267 10.7157 50.1802 10.4658 50.5641C10.1175 51.0991 9.64786 51.2361 9.08621 50.9664C8.77726 50.8181 8.61557 50.5995 8.57933 50.2813C8.45749 49.2132 9.74067 48.8114 10.4043 49.7101ZM14.7255 49.5343C15.0238 49.7836 15.0041 50.4215 14.6884 50.7393C14.5466 50.8819 14.2145 50.9986 13.9505 50.9986C13.4764 50.9986 13.4702 50.9867 13.4702 50.0702V49.1419L13.9875 49.246C14.2721 49.3033 14.6041 49.433 14.7255 49.5343ZM37.3754 49.4401C38.1235 49.9674 37.7209 50.9986 36.7668 50.9986C36.4654 50.9986 36.428 50.8983 36.428 50.0909C36.428 49.0884 36.6553 48.9323 37.3754 49.4401ZM60.9915 49.4893C61.0458 49.6553 60.9646 49.6824 60.6761 49.5946C60.0495 49.4035 59.8928 49.1501 60.4392 49.2117C60.7027 49.2414 60.9513 49.3663 60.9915 49.4893ZM18.5537 50.0909C18.5537 50.227 18.4822 50.3384 18.3948 50.3384C18.3076 50.3384 18.2785 50.227 18.3304 50.0909C18.3823 49.9547 18.4538 49.8433 18.4893 49.8433C18.5247 49.8433 18.5537 49.9547 18.5537 50.0909ZM24.6211 50.1734C24.6211 50.2642 24.5473 50.3384 24.4572 50.3384C24.367 50.3384 24.2932 50.2642 24.2932 50.1734C24.2932 50.0826 24.367 50.0084 24.4572 50.0084C24.5473 50.0084 24.6211 50.0826 24.6211 50.1734ZM32.8204 50.1734C32.8204 50.2642 32.7422 50.3384 32.6467 50.3384C32.5513 50.3384 32.5186 50.2642 32.5744 50.1734C32.6302 50.0826 32.7082 50.0084 32.7481 50.0084C32.7879 50.0084 32.8204 50.0826 32.8204 50.1734ZM56.5162 50.1734C56.5719 50.2642 56.5393 50.3384 56.4439 50.3384C56.3484 50.3384 56.2702 50.2642 56.2702 50.1734C56.2702 50.0826 56.3027 50.0084 56.3425 50.0084C56.3824 50.0084 56.4604 50.0826 56.5162 50.1734Z" fill="white"/>
</svg>
